<svg xmlns="http://www.w3.org/2000/svg" xmlns:xlink="http://www.w3.org/1999/xlink" width="1634" height="1459" viewBox="0 0 1634 1459">
  <defs>
    <clipPath id="clip-Artboard_77">
      <rect width="1634" height="1459"/>
    </clipPath>
  </defs>
  <g id="Artboard_77" data-name="Artboard – 77" clip-path="url(#clip-Artboard_77)">
    <g id="Subtraction_430" data-name="Subtraction 430" transform="translate(21560 -2575.5)">
      <path d="M -20415.064453125 4028.49951171875 L -21070.931640625 4028.49951171875 C -21084.640625 4028.49951171875 -21098.29296875 4026.688720703125 -21111.505859375 4023.116943359375 C -21124.501953125 4019.603515625 -21137.009765625 4014.405517578125 -21148.68359375 4007.666259765625 C -21160.3515625 4000.930908203125 -21171.10546875 3992.697509765625 -21180.650390625 3983.195068359375 C -21190.349609375 3973.54150390625 -21198.7421875 3962.6259765625 -21205.59765625 3950.75146484375 L -21533.533203125 3382.74755859375 C -21540.390625 3370.8740234375 -21545.6484375 3358.1474609375 -21549.158203125 3344.9208984375 C -21552.61328125 3331.915283203125 -21554.365234375 3318.48388671875 -21554.365234375 3304.999267578125 C -21554.365234375 3291.514892578125 -21552.61328125 3278.083251953125 -21549.158203125 3265.07763671875 C -21545.6484375 3251.850830078125 -21540.390625 3239.1240234375 -21533.533203125 3227.25048828125 L -21205.59765625 2659.252685546875 C -21198.7421875 2647.375732421875 -21190.349609375 2636.458740234375 -21180.650390625 2626.8056640625 C -21171.111328125 2617.305908203125 -21160.35546875 2609.072265625 -21148.68359375 2602.3330078125 C -21137.013671875 2595.59521484375 -21124.505859375 2590.396728515625 -21111.505859375 2586.881591796875 C -21098.291015625 2583.309814453125 -21084.640625 2581.498779296875 -21070.931640625 2581.498779296875 L -20415.064453125 2581.498779296875 C -20401.35546875 2581.498779296875 -20387.70703125 2583.309814453125 -20374.494140625 2586.881591796875 C -20361.494140625 2590.396728515625 -20348.986328125 2595.59521484375 -20337.318359375 2602.3330078125 C -20325.64453125 2609.072998046875 -20314.888671875 2617.306884765625 -20305.349609375 2626.8056640625 C -20295.6484375 2636.461669921875 -20287.255859375 2647.378173828125 -20280.400390625 2659.25244140625 L -19952.46484375 3227.25048828125 C -19945.607421875 3239.127685546875 -19940.3515625 3251.854736328125 -19936.841796875 3265.077392578125 C -19933.38671875 3278.083251953125 -19931.634765625 3291.514892578125 -19931.634765625 3304.999267578125 C -19931.634765625 3318.48388671875 -19933.38671875 3331.915283203125 -19936.841796875 3344.920654296875 C -19940.3515625 3358.14453125 -19945.607421875 3370.871337890625 -19952.46484375 3382.74755859375 L -20280.400390625 3950.751220703125 C -20287.255859375 3962.62353515625 -20295.6484375 3973.539306640625 -20305.349609375 3983.195068359375 C -20314.890625 3992.694580078125 -20325.646484375 4000.927734375 -20337.318359375 4007.666259765625 C -20348.986328125 4014.40380859375 -20361.494140625 4019.60205078125 -20374.494140625 4023.116943359375 C -20387.705078125 4026.688720703125 -20401.35546875 4028.49951171875 -20415.064453125 4028.49951171875 Z M -20854.08984375 3123.620849609375 C -20858.576171875 3123.620849609375 -20863.083984375 3124.052734375 -20867.484375 3124.904541015625 C -20871.927734375 3125.76513671875 -20876.298828125 3127.060546875 -20880.4765625 3128.7548828125 C -20889.173828125 3132.2802734375 -20896.978515625 3137.4619140625 -20903.67578125 3144.15673828125 L -21166.2265625 3406.713623046875 C -21172.919921875 3413.406494140625 -21178.1015625 3421.210693359375 -21181.630859375 3429.90966796875 C -21183.326171875 3434.081787109375 -21184.62109375 3438.453857421875 -21185.48046875 3442.904052734375 C -21186.333984375 3447.30029296875 -21186.765625 3451.80615234375 -21186.765625 3456.296630859375 C -21186.765625 3460.787109375 -21186.333984375 3465.293212890625 -21185.48046875 3469.689453125 C -21184.62109375 3474.1396484375 -21183.326171875 3478.51171875 -21181.630859375 3482.68359375 C -21178.103515625 3491.3818359375 -21172.921875 3499.18603515625 -21166.2265625 3505.87939453125 C -21159.537109375 3512.571044921875 -21151.732421875 3517.7529296875 -21143.03125 3521.28173828125 C -21138.845703125 3522.977783203125 -21134.47265625 3524.2734375 -21130.037109375 3525.13232421875 C -21125.638671875 3525.984130859375 -21121.1328125 3526.415771484375 -21116.646484375 3526.415771484375 C -21112.16015625 3526.415771484375 -21107.65234375 3525.984130859375 -21103.251953125 3525.13232421875 C -21098.81640625 3524.2734375 -21094.443359375 3522.977783203125 -21090.2578125 3521.28173828125 C -21081.55859375 3517.75390625 -21073.75390625 3512.572021484375 -21067.060546875 3505.87939453125 L -20854.08984375 3292.90869140625 L -20681.048828125 3465.94970703125 C -20674.3515625 3472.643310546875 -20666.546875 3477.825439453125 -20657.8515625 3481.3515625 C -20653.666015625 3483.048095703125 -20649.29296875 3484.343505859375 -20644.857421875 3485.201904296875 C -20640.458984375 3486.0537109375 -20635.953125 3486.485595703125 -20631.46484375 3486.485595703125 C -20626.9765625 3486.485595703125 -20622.470703125 3486.0537109375 -20618.072265625 3485.201904296875 C -20613.6328125 3484.342529296875 -20609.26171875 3483.047119140625 -20605.078125 3481.3515625 C -20596.37890625 3477.8232421875 -20588.57421875 3472.64111328125 -20581.8828125 3465.94970703125 L -20319.326171875 3203.392822265625 C -20312.634765625 3196.70263671875 -20307.453125 3188.898681640625 -20303.923828125 3180.197509765625 C -20302.23046875 3176.025634765625 -20300.935546875 3171.654052734375 -20300.07421875 3167.204345703125 C -20299.220703125 3162.79736328125 -20298.7890625 3158.29150390625 -20298.7890625 3153.81201171875 C -20298.7890625 3149.33203125 -20299.220703125 3144.826171875 -20300.07421875 3140.419921875 C -20300.935546875 3135.97021484375 -20302.23046875 3131.59814453125 -20303.923828125 3127.42529296875 C -20307.453125 3118.723876953125 -20312.634765625 3110.9189453125 -20319.326171875 3104.22705078125 C -20326.017578125 3097.533935546875 -20333.822265625 3092.351806640625 -20342.521484375 3088.82470703125 C -20346.703125 3087.12890625 -20351.076171875 3085.833740234375 -20355.515625 3084.974609375 C -20359.9140625 3084.12255859375 -20364.419921875 3083.690673828125 -20368.908203125 3083.690673828125 C -20373.396484375 3083.690673828125 -20377.90234375 3084.12255859375 -20382.30078125 3084.974609375 C -20386.73828125 3085.83349609375 -20391.111328125 3087.12890625 -20395.294921875 3088.82470703125 C -20403.990234375 3092.35107421875 -20411.794921875 3097.532958984375 -20418.4921875 3104.22705078125 L -20631.462890625 3317.203125 L -20804.509765625 3144.15673828125 C -20811.201171875 3137.4638671875 -20819.005859375 3132.28173828125 -20827.705078125 3128.7548828125 C -20831.8828125 3127.060546875 -20836.25390625 3125.76513671875 -20840.697265625 3124.904541015625 C -20845.095703125 3124.052734375 -20849.6015625 3123.620849609375 -20854.08984375 3123.620849609375 Z" stroke="none"/>
      <path d="M -20415.064453125 4027.99951171875 C -20401.400390625 4027.99951171875 -20387.79296875 4026.1943359375 -20374.625 4022.634033203125 C -20361.666015625 4019.130859375 -20349.197265625 4013.94921875 -20337.568359375 4007.233154296875 C -20325.93359375 4000.516357421875 -20315.212890625 3992.3095703125 -20305.701171875 3982.840576171875 C -20296.033203125 3973.216064453125 -20287.666015625 3962.33544921875 -20280.83203125 3950.501220703125 L -19952.896484375 3382.49755859375 C -19946.0625 3370.659423828125 -19940.82421875 3357.9736328125 -19937.326171875 3344.792236328125 C -19933.880859375 3331.828857421875 -19932.134765625 3318.4404296875 -19932.134765625 3304.999267578125 C -19932.134765625 3291.55810546875 -19933.880859375 3278.169677734375 -19937.326171875 3265.205810546875 C -19940.82421875 3252.025390625 -19946.0625 3239.33935546875 -19952.896484375 3227.50048828125 L -20280.83203125 2659.50244140625 C -20287.666015625 2647.66650390625 -20296.033203125 2636.784912109375 -20305.701171875 2627.159912109375 C -20315.2109375 2617.691650390625 -20325.931640625 2609.484375 -20337.568359375 2602.76611328125 C -20349.19921875 2596.050048828125 -20361.666015625 2590.867919921875 -20374.625 2587.364501953125 C -20387.794921875 2583.803955078125 -20401.400390625 2581.998779296875 -20415.064453125 2581.998779296875 L -21070.931640625 2581.998779296875 C -21084.595703125 2581.998779296875 -21098.203125 2583.803955078125 -21111.375 2587.364501953125 C -21124.333984375 2590.867919921875 -21136.802734375 2596.0498046875 -21148.43359375 2602.76611328125 C -21160.068359375 2609.483642578125 -21170.7890625 2617.69091796875 -21180.298828125 2627.159912109375 C -21189.96484375 2636.7822265625 -21198.33203125 2647.663818359375 -21205.166015625 2659.502685546875 L -21533.1015625 3227.500732421875 C -21539.935546875 3239.3359375 -21545.17578125 3252.021728515625 -21548.673828125 3265.2060546875 C -21552.119140625 3278.169677734375 -21553.865234375 3291.55810546875 -21553.865234375 3304.999267578125 C -21553.865234375 3318.4404296875 -21552.119140625 3331.828857421875 -21548.673828125 3344.792724609375 C -21545.17578125 3357.976318359375 -21539.935546875 3370.662109375 -21533.1015625 3382.49755859375 L -21205.166015625 3950.50146484375 C -21198.33203125 3962.337890625 -21189.96484375 3973.21826171875 -21180.298828125 3982.8408203125 C -21170.783203125 3992.312744140625 -21160.0625 4000.51953125 -21148.43359375 4007.233154296875 C -21136.796875 4013.95068359375 -21124.330078125 4019.13232421875 -21111.375 4022.634033203125 C -21098.205078125 4026.1943359375 -21084.59765625 4027.99951171875 -21070.931640625 4027.99951171875 L -20415.064453125 4027.99951171875 M -20854.08984375 3123.120849609375 C -20849.5703125 3123.120849609375 -20845.033203125 3123.555908203125 -20840.603515625 3124.413330078125 C -20836.126953125 3125.280517578125 -20831.724609375 3126.5849609375 -20827.517578125 3128.29150390625 C -20818.755859375 3131.84375 -20810.896484375 3137.062744140625 -20804.15625 3143.80322265625 L -20631.462890625 3316.49609375 L -20418.845703125 3103.87353515625 C -20412.1015625 3097.1318359375 -20404.240234375 3091.912841796875 -20395.482421875 3088.361328125 C -20391.26953125 3086.6533203125 -20386.865234375 3085.3486328125 -20382.39453125 3084.483642578125 C -20377.966796875 3083.625732421875 -20373.427734375 3083.190673828125 -20368.908203125 3083.190673828125 C -20364.388671875 3083.190673828125 -20359.849609375 3083.625732421875 -20355.421875 3084.483642578125 C -20350.94921875 3085.34912109375 -20346.544921875 3086.653564453125 -20342.333984375 3088.361328125 C -20333.572265625 3091.91357421875 -20325.712890625 3097.1328125 -20318.97265625 3103.87353515625 C -20312.234375 3110.61279296875 -20307.015625 3118.473388671875 -20303.4609375 3127.2373046875 C -20301.755859375 3131.440185546875 -20300.451171875 3135.843505859375 -20299.58203125 3140.32470703125 C -20298.724609375 3144.7626953125 -20298.2890625 3149.30029296875 -20298.2890625 3153.81201171875 C -20298.2890625 3158.323486328125 -20298.724609375 3162.861083984375 -20299.58203125 3167.29931640625 C -20300.451171875 3171.78076171875 -20301.755859375 3176.18359375 -20303.4609375 3180.3857421875 C -20307.015625 3189.14892578125 -20312.234375 3197.008544921875 -20318.97265625 3203.746337890625 L -20581.529296875 3466.303466796875 C -20588.26953125 3473.04248046875 -20596.12890625 3478.26123046875 -20604.890625 3481.81494140625 C -20609.103515625 3483.522705078125 -20613.505859375 3484.827392578125 -20617.978515625 3485.693115234375 C -20622.408203125 3486.550537109375 -20626.9453125 3486.985595703125 -20631.46484375 3486.985595703125 C -20635.984375 3486.985595703125 -20640.521484375 3486.550537109375 -20644.951171875 3485.693115234375 C -20649.419921875 3484.828125 -20653.82421875 3483.523681640625 -20658.0390625 3481.81494140625 C -20666.798828125 3478.263427734375 -20674.658203125 3473.044677734375 -20681.40234375 3466.303466796875 L -20854.08984375 3293.61572265625 L -21066.70703125 3506.23291015625 C -21073.447265625 3512.97314453125 -21081.306640625 3518.192138671875 -21090.0703125 3521.7451171875 C -21094.28515625 3523.453369140625 -21098.689453125 3524.75830078125 -21103.158203125 3525.623291015625 C -21107.58984375 3526.48095703125 -21112.126953125 3526.915771484375 -21116.646484375 3526.915771484375 C -21121.1640625 3526.915771484375 -21125.701171875 3526.480712890625 -21130.130859375 3525.623291015625 C -21134.599609375 3524.75830078125 -21139.00390625 3523.453369140625 -21143.21875 3521.7451171875 C -21151.982421875 3518.19091796875 -21159.841796875 3512.971923828125 -21166.580078125 3506.23291015625 C -21173.322265625 3499.491943359375 -21178.54296875 3491.632080078125 -21182.09375 3482.871826171875 C -21183.80078125 3478.669677734375 -21185.10546875 3474.266357421875 -21185.97265625 3469.78466796875 C -21186.830078125 3465.357177734375 -21187.265625 3460.8193359375 -21187.265625 3456.296630859375 C -21187.265625 3451.774169921875 -21186.830078125 3447.236328125 -21185.97265625 3442.809326171875 C -21185.10546875 3438.326904296875 -21183.80078125 3433.923828125 -21182.09375 3429.7216796875 C -21178.541015625 3420.96044921875 -21173.3203125 3413.100341796875 -21166.580078125 3406.360107421875 L -20904.029296875 3143.80322265625 C -20897.28515625 3137.06103515625 -20889.423828125 3131.842041015625 -20880.6640625 3128.29150390625 C -20876.45703125 3126.5849609375 -20872.0546875 3125.280517578125 -20867.578125 3124.413330078125 C -20863.146484375 3123.555908203125 -20858.609375 3123.120849609375 -20854.08984375 3123.120849609375 M -20415.064453125 4028.99951171875 L -21070.931640625 4028.99951171875 C -21084.685546875 4028.99951171875 -21098.380859375 4027.1826171875 -21111.63671875 4023.599365234375 C -21124.677734375 4020.073974609375 -21137.224609375 4014.85888671875 -21148.93359375 4008.09912109375 C -21160.640625 4001.3408203125 -21171.4296875 3993.0810546875 -21181.00390625 3983.54931640625 C -21190.734375 3973.86376953125 -21199.154296875 3962.913330078125 -21206.03125 3951.00146484375 L -21533.966796875 3382.99755859375 C -21540.845703125 3371.0869140625 -21546.119140625 3358.3193359375 -21549.640625 3345.049072265625 C -21553.109375 3331.994140625 -21554.865234375 3318.519287109375 -21554.865234375 3304.999267578125 C -21554.865234375 3291.47900390625 -21553.109375 3278.004150390625 -21549.640625 3264.94921875 C -21546.119140625 3251.6787109375 -21540.845703125 3238.9111328125 -21533.966796875 3227.00048828125 L -21206.03125 2659.002685546875 C -21199.154296875 2647.0888671875 -21190.734375 2636.136962890625 -21181.00390625 2626.451171875 C -21171.431640625 2616.919677734375 -21160.640625 2608.659423828125 -21148.93359375 2601.89990234375 C -21137.2265625 2595.14013671875 -21124.677734375 2589.925048828125 -21111.63671875 2586.39892578125 C -21098.380859375 2582.81591796875 -21084.685546875 2580.998779296875 -21070.931640625 2580.998779296875 L -20415.064453125 2580.998779296875 C -20401.310546875 2580.998779296875 -20387.6171875 2582.81591796875 -20374.36328125 2586.39892578125 C -20361.3203125 2589.925537109375 -20348.7734375 2595.140625 -20337.068359375 2601.89990234375 C -20325.357421875 2608.6611328125 -20314.56640625 2616.92138671875 -20304.99609375 2626.451171875 C -20295.267578125 2636.135986328125 -20286.845703125 2647.087890625 -20279.966796875 2659.00244140625 L -19952.03125 3227.00048828125 C -19945.154296875 3238.913330078125 -19939.880859375 3251.680908203125 -19936.359375 3264.94921875 C -19932.890625 3278.004150390625 -19931.134765625 3291.47900390625 -19931.134765625 3304.999267578125 C -19931.134765625 3318.519287109375 -19932.890625 3331.994140625 -19936.359375 3345.049072265625 C -19939.880859375 3358.317138671875 -19945.154296875 3371.0849609375 -19952.03125 3382.99755859375 L -20279.966796875 3951.001220703125 C -20286.845703125 3962.9140625 -20295.267578125 3973.86474609375 -20304.99609375 3983.54931640625 C -20314.568359375 3993.0791015625 -20325.359375 4001.339111328125 -20337.068359375 4008.09912109375 C -20348.7734375 4014.858642578125 -20361.322265625 4020.07373046875 -20374.36328125 4023.599365234375 C -20387.6171875 4027.1826171875 -20401.310546875 4028.99951171875 -20415.064453125 4028.99951171875 Z M -20854.08984375 3124.120849609375 C -20858.544921875 3124.120849609375 -20863.01953125 3124.549560546875 -20867.388671875 3125.395263671875 C -20871.798828125 3126.24951171875 -20876.140625 3127.535888671875 -20880.2890625 3129.21826171875 C -20888.92578125 3132.71923828125 -20896.673828125 3137.8642578125 -20903.322265625 3144.510498046875 L -21165.873046875 3407.067138671875 C -21172.517578125 3413.7119140625 -21177.6640625 3421.460693359375 -21181.16796875 3430.09765625 C -21182.8515625 3434.24462890625 -21184.13671875 3438.58544921875 -21184.990234375 3442.9990234375 C -21185.837890625 3447.370849609375 -21186.265625 3451.8447265625 -21186.265625 3456.296630859375 C -21186.265625 3460.748779296875 -21185.837890625 3465.22265625 -21184.990234375 3469.59423828125 C -21184.13671875 3474.008056640625 -21182.8515625 3478.348876953125 -21181.16796875 3482.49560546875 C -21177.666015625 3491.132080078125 -21172.51953125 3498.880615234375 -21165.873046875 3505.52587890625 C -21159.23046875 3512.169921875 -21151.482421875 3517.31494140625 -21142.84375 3520.818359375 C -21138.689453125 3522.501708984375 -21134.349609375 3523.7880859375 -21129.94140625 3524.641357421875 C -21125.57421875 3525.487060546875 -21121.1015625 3525.915771484375 -21116.646484375 3525.915771484375 C -21112.19140625 3525.915771484375 -21107.716796875 3525.487060546875 -21103.34765625 3524.641357421875 C -21098.939453125 3523.7880859375 -21094.599609375 3522.501708984375 -21090.4453125 3520.818359375 C -21081.806640625 3517.3154296875 -21074.05859375 3512.170166015625 -21067.4140625 3505.52587890625 L -20854.08984375 3292.201416015625 L -20680.6953125 3465.59619140625 C -20674.046875 3472.241943359375 -20666.298828125 3477.38671875 -20657.6640625 3480.88818359375 C -20653.509765625 3482.57177734375 -20649.169921875 3483.858154296875 -20644.76171875 3484.711181640625 C -20640.39453125 3485.556884765625 -20635.919921875 3485.985595703125 -20631.46484375 3485.985595703125 C -20627.009765625 3485.985595703125 -20622.53515625 3485.556884765625 -20618.16796875 3484.711181640625 C -20613.76171875 3483.858154296875 -20609.419921875 3482.572021484375 -20605.265625 3480.88818359375 C -20596.62890625 3477.385009765625 -20588.880859375 3472.239990234375 -20582.236328125 3465.59619140625 L -20319.6796875 3203.039306640625 C -20313.03515625 3196.3955078125 -20307.890625 3188.64697265625 -20304.38671875 3180.009521484375 C -20302.705078125 3175.863525390625 -20301.419921875 3171.52294921875 -20300.564453125 3167.109130859375 C -20299.71875 3162.7373046875 -20299.2890625 3158.263916015625 -20299.2890625 3153.81201171875 C -20299.2890625 3149.360107421875 -20299.71875 3144.886474609375 -20300.564453125 3140.514892578125 C -20301.419921875 3136.10009765625 -20302.705078125 3131.759521484375 -20304.38671875 3127.61328125 C -20307.890625 3118.975341796875 -20313.03515625 3111.22607421875 -20319.6796875 3104.58056640625 C -20326.32421875 3097.935302734375 -20334.072265625 3092.7900390625 -20342.708984375 3089.2880859375 C -20346.859375 3087.605224609375 -20351.19921875 3086.319091796875 -20355.611328125 3085.46533203125 C -20359.978515625 3084.619384765625 -20364.453125 3084.190673828125 -20368.908203125 3084.190673828125 C -20373.36328125 3084.190673828125 -20377.837890625 3084.619384765625 -20382.205078125 3085.46533203125 C -20386.61328125 3086.318359375 -20390.953125 3087.6044921875 -20395.107421875 3089.2880859375 C -20403.7421875 3092.78955078125 -20411.490234375 3097.934814453125 -20418.138671875 3104.58056640625 L -20631.462890625 3317.910400390625 L -20804.86328125 3144.510498046875 C -20811.5078125 3137.864990234375 -20819.255859375 3132.719970703125 -20827.892578125 3129.21826171875 C -20832.041015625 3127.535888671875 -20836.3828125 3126.24951171875 -20840.79296875 3125.395263671875 C -20845.16015625 3124.549560546875 -20849.634765625 3124.120849609375 -20854.08984375 3124.120849609375 Z" stroke="none" fill="#707070"/>
    </g>
  </g>
</svg>
