<svg width="27" height="24" viewBox="0 0 27 24" fill="none" xmlns="http://www.w3.org/2000/svg">
<path d="M18.7522 0C19.7738 0 20.7179 0.543597 21.2288 1.42578L26.5266 10.5742C27.0374 11.4564 27.0374 12.5436 26.5266 13.4258L21.2288 22.5742C20.7179 23.4564 19.7738 24 18.7522 24H8.15747C7.13584 24 6.19172 23.4564 5.68091 22.5742L0.383057 13.4258C-0.12769 12.5436 -0.127689 11.4564 0.383057 10.5742L5.68091 1.42578C6.19172 0.543603 7.13584 6.91849e-06 8.15747 0H18.7522ZM19.7932 8.12793C19.3848 7.81012 18.7989 7.88644 18.4827 8.29492L15.4114 12.2471L11.8997 9.49707C11.7042 9.34187 11.4569 9.27143 11.2053 9.30371C10.9591 9.33479 10.7341 9.46307 10.5823 9.66016L6.85474 14.4902C6.53969 14.8975 6.61719 15.4827 7.02563 15.7969C7.1948 15.9258 7.39502 15.9892 7.59399 15.9893C7.87418 15.9893 8.15091 15.8634 8.33521 15.625L11.4875 11.542L14.9963 14.291C15.193 14.4436 15.4398 14.515 15.6887 14.4814C15.9351 14.4516 16.1589 14.3239 16.3108 14.1279L19.9602 9.43457C20.2764 9.02856 20.2016 8.44326 19.7932 8.12793Z" fill="#01091C"/>
</svg>
